<?xml version="1.0" standalone="no"?>
<!DOCTYPE svg PUBLIC "-//W3C//DTD SVG 20010904//EN"
 "http://www.w3.org/TR/2001/REC-SVG-20010904/DTD/svg10.dtd">
<svg version="1.0" xmlns="http://www.w3.org/2000/svg"
 width="1200.000000pt" height="1200.000000pt" viewBox="0 0 1200.000000 1200.000000"
 preserveAspectRatio="xMidYMid meet">

<g transform="translate(0.000000,1200.000000) scale(0.100000,-0.100000)"
fill="#000000" stroke="none">
<path d="M1200 6450 l0 -1950 1800 0 1800 0 0 75 0 75 -1725 0 -1725 0 0 1800
0 1800 4650 0 4650 0 0 -1800 0 -1800 -1725 0 -1725 0 0 -75 0 -75 1800 0
1800 0 0 1950 0 1950 -4800 0 -4800 0 0 -1950z"/>
<path d="M5287 7222 l-46 -57 24 -22 c14 -12 22 -24 17 -26 -4 -2 -110 -3
-236 -3 l-228 1 4 -358 c2 -197 1 -388 -4 -425 -13 -101 -73 -216 -148 -284
l-59 -54 37 -13 c20 -8 52 -25 71 -39 l35 -26 54 60 c29 32 69 91 88 131 54
112 64 177 64 431 0 169 3 224 13 227 6 2 46 6 87 7 l75 3 3 -102 3 -102 107
-3 107 -3 0 -35 0 -35 -182 -3 -183 -2 0 -199 c0 -109 -3 -213 -6 -230 l-6
-31 76 0 76 0 0 175 0 175 116 0 117 0 -5 -235 -4 -235 73 0 73 0 0 235 0 235
105 0 106 0 -3 -97 -3 -98 -81 2 -80 1 23 -46 c13 -25 23 -63 23 -84 l0 -39
53 7 c115 13 179 50 197 112 5 20 10 108 10 195 l0 157 -175 0 -175 0 0 40 0
40 90 0 89 0 3 103 3 102 128 -3 127 -4 0 61 0 61 -130 0 -130 0 0 39 c0 72
-2 71 141 71 l129 0 0 59 0 60 -240 -3 c-221 -2 -269 1 -240 19 18 11 11 22
-63 83 l-73 60 -47 -56z m-147 -277 l0 -56 -87 3 -88 3 -3 53 -3 52 90 0 91 0
0 -55z m400 0 l0 -55 -130 0 -130 0 0 55 0 55 130 0 130 0 0 -55z m-2 -217 l3
-48 -130 0 -131 0 0 43 c0 24 3 47 7 51 4 3 61 5 127 4 l121 -3 3 -47z"/>
<path d="M3530 7075 l0 -155 -135 0 -135 0 0 -60 0 -60 116 0 116 0 -7 -32
c-42 -195 -123 -359 -256 -519 -22 -26 -39 -51 -39 -57 0 -5 12 -12 28 -15 15
-3 44 -17 65 -31 21 -15 42 -24 46 -22 16 11 128 174 163 240 l37 71 1 -262 0
-263 73 0 73 0 -4 310 c-3 204 -1 310 5 310 6 0 29 -24 53 -54 63 -83 63 -83
109 -47 21 17 42 31 46 31 4 0 6 -124 3 -275 l-3 -275 72 0 72 0 3 58 3 57
140 0 140 0 3 -57 3 -58 69 0 70 0 0 600 0 600 -285 0 -284 0 -3 -92 -3 -93
-109 -3 -109 -3 6 156 7 155 -75 0 -75 0 0 -155z m790 -184 c0 -81 -3 -100
-16 -105 -9 -3 -74 -6 -145 -6 l-129 0 0 105 0 105 145 0 145 0 0 -99z m-432
-228 c1 -73 0 -133 -3 -133 -3 0 -20 17 -38 38 -72 83 -160 171 -168 166 -5
-3 -9 11 -9 31 l0 36 108 -3 107 -3 3 -132z m432 -98 l0 -105 -145 0 -145 0 0
105 0 105 145 0 145 0 0 -105z m0 -320 l0 -105 -145 0 -145 0 0 105 0 105 145
0 145 0 0 -105z"/>
<path d="M6262 7065 l3 -160 -100 3 -100 4 3 -59 4 -59 85 4 85 4 -7 -23 c-22
-72 -132 -339 -178 -431 l-54 -108 31 0 c17 -1 49 -7 71 -15 49 -18 43 -23
110 118 28 58 53 106 57 107 4 0 6 -19 3 -42 -2 -24 -7 -141 -10 -260 l-5
-218 75 0 c73 0 75 -1 90 -30 9 -16 22 -30 30 -30 34 0 256 124 333 185 45 37
82 71 82 76 0 5 -9 14 -20 21 -34 21 -23 28 45 28 69 0 73 -3 50 -34 -8 -11
-15 -23 -15 -27 0 -3 34 -30 76 -59 41 -29 110 -79 151 -113 l76 -60 29 34
c57 67 63 78 46 92 -9 7 -60 46 -114 87 l-99 75 65 3 65 3 0 244 0 245 -132 0
-133 0 0 40 0 40 203 0 202 0 0 55 0 55 -117 0 -118 0 0 55 0 55 90 0 90 0 0
55 0 55 -90 0 -90 0 0 75 0 75 -70 0 -70 0 0 -75 0 -75 -80 0 -80 0 0 73 0 72
-70 0 -70 0 0 -72 0 -73 -85 0 -85 0 0 -55 0 -55 85 0 85 0 0 -55 0 -55 -50 0
c-47 0 -50 1 -50 26 l0 26 -87 -3 -88 -4 1 160 1 160 -79 0 -79 0 3 -160z
m728 -150 l0 -55 -80 0 -80 0 0 55 0 55 80 0 80 0 0 -55z m-522 -142 c3 -23 5
-23 178 -23 l174 0 0 -40 0 -40 -131 0 -132 0 6 -45 c4 -25 3 -45 -1 -44 -4 0
-33 36 -65 79 -39 55 -62 78 -72 74 -12 -5 -15 2 -15 31 0 34 2 36 28 33 19
-2 28 -9 30 -25z m352 -243 l0 -40 -60 0 -60 0 0 40 0 40 60 0 60 0 0 -40z
m270 0 l0 -40 -65 0 -65 0 0 40 0 40 65 0 65 0 0 -40z m-581 -45 c28 14 53 25
57 25 4 0 5 -74 2 -165 l-4 -164 75 -3 76 -3 -70 -53 c-68 -52 -170 -107 -210
-114 -20 -3 -20 3 -22 252 l-3 255 25 -28 25 -28 49 26z m311 -145 l0 -50 -60
0 -60 0 0 50 0 50 60 0 60 0 0 -50z m270 0 l0 -50 -65 0 -65 0 0 50 0 50 65 0
65 0 0 -50z"/>
<path d="M7455 7060 l0 -75 293 3 292 3 -2 -463 -3 -463 -112 2 -112 2 24 -36
c28 -40 48 -104 40 -125 -5 -11 7 -13 62 -11 141 7 210 39 239 110 11 26 14
129 14 508 l0 476 295 -3 295 -3 0 75 0 75 -662 0 -663 0 0 -75z"/>
<path d="M5972 5420 c-28 -17 -39 -19 -69 -11 -47 13 -97 -7 -121 -49 -9 -16
-24 -30 -33 -30 -25 0 -103 -55 -118 -83 -10 -19 -23 -27 -40 -27 -14 0 -44
-11 -66 -24 -22 -14 -63 -35 -91 -49 -56 -27 -95 -72 -112 -127 -6 -19 -14
-81 -17 -136 -6 -89 -4 -107 13 -146 21 -47 60 -82 106 -94 l27 -6 -7 -122
c-3 -66 -11 -231 -18 -366 -11 -238 -12 -245 -33 -256 -66 -32 -81 -82 -39
-131 l24 -28 554 -3 c304 -2 572 0 596 3 53 8 82 35 82 76 0 41 -14 64 -48 78
-27 11 -30 17 -36 79 -3 37 -6 101 -6 143 l0 76 39 7 c59 9 132 63 163 121 31
58 63 254 56 342 -6 64 -42 122 -100 160 -36 25 -51 28 -119 28 l-77 0 -4 107
c-4 95 -7 111 -31 147 -15 22 -40 50 -56 62 -17 12 -33 36 -37 53 -14 66 -72
116 -133 116 -24 0 -33 6 -47 35 -33 71 -132 97 -202 55z m135 -45 c13 -9 27
-33 33 -55 10 -39 12 -40 54 -38 69 3 116 -39 116 -105 0 -14 11 -29 28 -39
15 -9 36 -26 46 -37 l19 -21 -431 0 c-248 0 -441 -4 -456 -10 -14 -5 -30 -18
-36 -30 -6 -11 -15 -93 -20 -181 -4 -89 -11 -164 -15 -167 -12 -12 -60 24 -79
60 -18 33 -19 45 -10 152 12 135 23 157 99 196 28 14 65 35 84 47 19 12 51 25
72 28 29 5 43 15 60 41 22 37 54 57 106 68 22 5 33 14 37 31 9 37 51 61 81 47
14 -7 25 -16 25 -22 0 -19 29 -10 58 20 35 34 92 41 129 15z m311 -357 c6 -8
19 -205 31 -463 12 -247 24 -496 27 -552 l7 -103 -512 0 -512 0 5 43 c3 23 15
267 27 542 12 275 26 510 30 523 l9 22 439 0 c339 0 441 -3 449 -12z m239
-244 c51 -38 73 -81 73 -143 -1 -60 -24 -233 -36 -266 -23 -63 -102 -125 -159
-125 -22 0 -25 4 -25 38 0 20 -5 139 -11 264 -6 125 -9 234 -5 244 9 24 125
16 163 -12z m-97 -943 c7 -15 6 -23 -6 -35 -14 -14 -81 -16 -583 -16 -428 0
-570 3 -579 12 -16 16 -15 45 1 51 6 3 269 6 584 6 556 1 573 0 583 -18z"/>
<path d="M5585 4949 c-4 -6 -3 -15 2 -20 5 -5 122 -8 279 -7 231 3 269 5 269
18 0 13 -38 15 -272 18 -190 2 -274 -1 -278 -9z"/>
<path d="M6205 4950 c-13 -22 9 -30 81 -30 67 0 74 2 74 20 0 18 -7 20 -74 20
-41 0 -78 -4 -81 -10z"/>
<path d="M5532 4013 c2 -35 7 -48 18 -48 11 0 16 13 18 48 3 42 1 47 -18 47
-19 0 -21 -5 -18 -47z"/>
<path d="M5672 4013 c3 -53 22 -67 39 -30 16 35 4 77 -22 77 -18 0 -20 -5 -17
-47z"/>
<path d="M5810 4016 c0 -49 13 -65 35 -46 28 23 16 90 -16 90 -16 0 -19 -8
-19 -44z"/>
<path d="M5950 4015 c0 -33 5 -47 16 -52 22 -8 35 15 32 57 -2 28 -8 36 -25
38 -21 3 -23 -1 -23 -43z"/>
<path d="M6090 4015 c0 -33 5 -47 16 -52 22 -8 35 15 32 57 -2 28 -8 36 -25
38 -21 3 -23 -1 -23 -43z"/>
<path d="M6232 4013 c3 -40 6 -48 23 -48 17 0 20 7 20 45 0 39 -3 45 -23 48
-22 3 -23 1 -20 -45z"/>
<path d="M6372 4013 c3 -40 6 -48 23 -48 17 0 20 7 20 45 0 39 -3 45 -23 48
-22 3 -23 1 -20 -45z"/>
</g>
</svg>
